<svg width="400" height="400" viewBox="0 0 400 400" fill="none" xmlns="http://www.w3.org/2000/svg">
<path d="M264 223.66H263.88H264ZM97.0007 282C97.7607 282.12 101.921 282.32 101.921 281.6C101.921 281.18 101.161 281.2 101.161 281.2C101.261 278 105.321 277.2 108.221 278.88C109.02 279.34 109.759 279.897 110.421 280.54C106.321 280.76 100.881 283.56 101.241 287.62C101.447 288.678 101.891 289.677 102.539 290.54C103.187 291.401 104.021 292.107 104.981 292.6C106.18 293.497 107.545 294.147 108.997 294.51C110.45 294.875 111.96 294.945 113.441 294.72C116.077 294.048 118.397 292.478 120.001 290.28C123.626 290.395 127.172 289.21 130.001 286.94C130.12 286.845 130.219 286.727 130.291 286.593C130.363 286.458 130.407 286.312 130.421 286.16C130.421 285.46 130.421 285.5 126.421 281.06C126.307 280.933 126.165 280.837 126.007 280.777C125.848 280.717 125.677 280.695 125.509 280.715C125.34 280.733 125.179 280.793 125.038 280.888C124.898 280.983 124.782 281.112 124.701 281.26C124.632 281.347 124.571 281.441 124.521 281.54C124.203 282.137 123.689 282.605 123.067 282.868C122.444 283.13 121.749 283.17 121.101 282.98C119.101 282.4 116.521 277.1 111.821 273.94C107.721 271.18 102.221 270.36 98.3407 273.64C96.6705 275.073 95.4833 276.987 94.9407 279.12C94.7247 279.778 94.7676 280.493 95.0607 281.12C95.5862 281.628 96.2716 281.94 97.0007 282ZM104.521 289.42C103.972 289.028 103.592 288.445 103.455 287.785C103.317 287.125 103.434 286.438 103.781 285.86C104.668 284.633 105.9 283.701 107.321 283.18C106.175 285.123 105.236 287.18 104.521 289.32V289.42ZM123.361 286.26C123.841 284.82 123.361 285.32 124.161 284.96C124.767 284.658 125.315 284.252 125.781 283.76L127.601 285.92C126.093 286.875 124.427 287.553 122.681 287.92C122.881 287.4 123.201 286.6 123.361 286.16V286.26ZM116.121 281.16C118.021 283.54 119.601 285.66 122.501 285.42C122.087 286.281 121.752 287.178 121.501 288.1C120.041 288.2 119.841 287.86 119.261 288.1C118.121 288.54 116.241 292.64 111.681 292.62C111.964 291.985 112.147 291.31 112.221 290.62C113.511 290.36 114.719 289.79 115.741 288.96C116.179 288.58 116.463 288.055 116.541 287.48C116.541 286.78 116.301 285.88 114.821 284.7C115.372 283.532 115.807 282.313 116.121 281.06V281.16ZM109.401 288.72C107.641 287.78 110.641 286.12 112.581 286.18C113.026 286.183 113.462 286.313 113.837 286.553C114.212 286.793 114.512 287.137 114.701 287.54C114.433 287.97 114.081 288.341 113.665 288.63C113.25 288.92 112.78 289.121 112.283 289.221C111.787 289.323 111.276 289.322 110.78 289.218C110.284 289.115 109.815 288.912 109.401 288.62V288.72ZM111.761 276.48C113.119 277.635 114.352 278.928 115.441 280.34C114.808 281.493 114.324 282.723 114.001 284C113.16 283.758 112.279 283.693 111.412 283.807C110.545 283.92 109.711 284.21 108.961 284.66C105.301 286.66 106.161 291.04 111.241 290.54C110.942 291.115 110.72 291.727 110.581 292.36C108.552 291.955 106.656 291.055 105.061 289.74C106.478 287.537 107.582 285.147 108.341 282.64C109.118 282.283 109.959 282.085 110.815 282.057C111.67 282.03 112.522 282.173 113.321 282.48L113.741 280.9L113.301 280.7C112.361 280.06 111.941 279.56 110.861 278.7C111.261 277.97 111.564 277.19 111.761 276.38V276.48ZM104.001 273.28C106.504 273.325 108.927 274.167 110.921 275.68C110.563 276.495 110.294 277.347 110.121 278.22C109.162 277.468 108.031 276.965 106.83 276.76C105.629 276.553 104.395 276.65 103.241 277.04C103.663 275.827 103.918 274.561 104.001 273.28ZM99.4207 274.84C100.529 273.977 101.862 273.45 103.261 273.32C102.64 274.665 102.255 276.105 102.121 277.58C101.525 277.937 101.037 278.45 100.709 279.063C100.382 279.675 100.227 280.365 100.261 281.06C98.8593 281.137 97.4571 280.927 96.1407 280.44C96.4382 278.218 97.6029 276.205 99.3807 274.84H99.4207ZM69.5407 271.5C65.9407 269.94 57.9407 274.56 56.4807 277.04C56.2694 277.587 56.2694 278.193 56.4807 278.74C57.7407 283.52 69.5007 300.4 71.6807 303.02C72.0607 303.5 72.5807 302.84 72.2407 302.28C71.2007 300.56 71.3207 304.02 76.6407 286.8C77.1334 286.607 77.5924 286.337 78.0007 286C78.1862 285.793 78.2887 285.527 78.2887 285.25C78.2887 284.973 78.1862 284.705 78.0007 284.5C77.8189 284.275 77.6109 284.073 77.3807 283.9L78.6407 279.24L83.6407 282C82.6294 284.527 81.892 287.155 81.4407 289.84C79.424 290.567 77.5342 291.607 75.8407 292.92C74.6607 294.22 76.5207 296.62 77.6807 298.06C78.8407 299.5 79.8207 300.48 80.0407 300.7C80.2607 300.92 80.9607 300.7 80.9007 300.34C80.7738 300.05 80.6051 299.781 80.4007 299.54C79.3167 297.853 78.3865 296.073 77.6207 294.22C79.1749 293.29 80.816 292.513 82.5207 291.9C83.1407 291.68 85.0607 291.08 85.5807 291.4C88.1465 292.752 90.8229 293.881 93.5807 294.78C93.692 294.833 93.82 294.84 93.936 294.798C94.0524 294.757 94.1476 294.672 94.2007 294.56C94.2538 294.448 94.2604 294.32 94.2189 294.205C94.1778 294.088 94.092 293.993 93.9807 293.94L90.5207 291.84C91.2571 290.17 91.7294 288.395 91.9207 286.58L100.461 291.2C100.981 291.5 101.381 290.68 101.001 290.46C100.621 290.24 74.7007 273.76 69.5407 271.5ZM66.5007 273.62C67.1985 273.41 67.9425 273.41 68.6407 273.62C69.1007 273.82 70.2207 274.42 71.7407 275.26C71.228 276.675 70.8789 278.145 70.7007 279.64C69.3607 278.88 68.5607 278.3 67.5007 278.48C66.9229 278.61 66.3822 278.87 65.9207 279.24C66.1207 277.68 66.3007 276.48 66.5007 273.62ZM58.5007 278.02C60.5749 276.041 63.0913 274.588 65.8407 273.78C64.7731 278.498 64.0247 283.281 63.6007 288.1C61.584 284.907 59.8825 281.523 58.5207 278L58.5007 278.02ZM67.5807 294.84C66.4807 293.02 65.2807 291 64.1407 289.02C64.8207 286.16 65.0407 284.84 65.4607 282.14C66.5549 284.038 67.82 285.832 69.2407 287.5C68.4342 289.881 67.8844 292.341 67.6007 294.84H67.5807ZM71.0807 300.6C70.3607 299.46 69.4407 297.92 68.2407 295.94C69 293.43 69.5025 290.85 69.7407 288.24C70.1807 289.3 74.1007 287.78 75.1607 287.38C74.3807 289.84 71.6607 298.4 71.1007 300.6H71.0807ZM70.4807 287.62C69.2411 285.475 68.1454 283.25 67.2007 280.96L67.8207 280.62C68.1007 280.78 74.9407 284.82 75.4407 285.14C73.8818 286.132 72.2269 286.961 70.5007 287.62H70.4807ZM76.4807 283.22C74.9807 282.22 72.9407 281 71.3807 280.1C71.9142 278.683 72.264 277.205 72.4207 275.7L78.1007 278.9C78.0007 279.66 77.3207 281.22 76.6007 283.22H76.4807ZM89.7207 291.22L86.6407 289.36C85.272 288.82 83.7491 288.82 82.3807 289.36C83.156 287.021 83.7182 284.618 84.0607 282.18L91.3007 286.18C90.5611 287.812 90.0687 289.543 89.8407 291.32L89.7207 291.22Z" fill="#D4D4D4"/>
<path d="M388.702 298.34C385.462 268.18 357.54 221.8 340.86 196.46C350.174 197.205 359.522 197.439 368.858 197.16C371.52 197.16 378.48 196.68 379.822 196.42C380.6 196.26 380.72 195.52 379.542 195.48C378.36 195.44 369.96 195.04 368.822 195.02H348.48C345.36 195.14 340.48 195.42 340.2 195.42C334.2 186.28 330.02 180.56 329.98 180.54C329.935 180.493 329.878 180.457 329.818 180.433C329.757 180.41 329.692 180.4 329.625 180.403C329.56 180.408 329.497 180.425 329.438 180.457C329.38 180.487 329.33 180.528 329.29 180.58C329.25 180.632 329.222 180.692 329.205 180.755C329.19 180.82 329.189 180.885 329.202 180.95C329.214 181.013 329.24 181.075 329.277 181.128C329.315 181.182 329.363 181.227 329.42 181.26C330.34 182 370.76 241.06 383.12 281.74C388.022 297.88 390.92 318.14 375.12 323.74C337.6 337.14 43.7402 341.5 15.9604 325.74C12.1004 323.56 11.2004 319.02 11.9604 312.9C13.1404 304.4 17.7204 292.9 23.2404 280.02C29.4604 286.02 81.0602 333.4 89.4202 331.62C97.7802 329.84 144.8 308 146.74 303.82C147.867 300.917 148.463 297.833 148.5 294.72C148.737 294.393 148.847 293.993 148.811 293.592C148.774 293.192 148.593 292.817 148.3 292.54C145.2 289.46 83.7002 240.7 79.7402 240.84C76.9802 240.96 71.9802 243.8 69.6002 245.2C68.8286 243.937 67.6799 242.95 66.3162 242.375C64.9522 241.8 63.4428 241.67 62.0002 242C60.6406 242.548 59.4228 243.4 58.4391 244.487C57.4551 245.575 56.7308 246.872 56.3202 248.28C56.3428 248.388 56.402 248.485 56.4875 248.555C56.5729 248.625 56.6802 248.662 56.7904 248.662C56.9009 248.662 57.0078 248.625 57.0933 248.555C57.1791 248.485 57.238 248.388 57.2602 248.28C58.4635 246.245 60.3704 244.723 62.6202 244C63.5562 243.857 64.5129 243.982 65.3806 244.36C66.2479 244.739 66.99 245.357 67.5202 246.14L45.2802 255.64C44.0995 254.427 42.6253 253.537 41.0002 253.06C37.2002 252.06 34.6404 254.56 33.1204 258.22C33.087 258.325 33.0909 258.439 33.1314 258.542C33.1719 258.645 33.2467 258.73 33.343 258.783C33.4394 258.839 33.5514 258.857 33.6602 258.839C33.769 258.82 33.868 258.763 33.9404 258.68C36.5002 254.98 39.4602 253.72 43.0002 256.68C38.7202 258.58 32.7404 261.28 28.5404 263.36C28.8404 262.88 72.0002 184.72 72.0002 184.52C73.9002 181 77.7202 174.7 81.6602 173.88C83.4413 173.492 85.258 173.29 87.0802 173.28C84.3002 177.88 61.7402 215.28 61.7002 220.56C61.7002 226.56 62.7402 225.62 65.9402 226.56C69.1402 227.5 248.2 226.4 248.52 226.4C251.62 226.4 263.74 226 264.86 225.18C268.34 222.62 267.56 218.8 266.04 214.78C265.68 213.82 263.86 209.84 261.42 204.52C271.92 201.36 279.82 205.38 280.54 222.52C281.26 237.34 275.42 241.86 264.24 241.22C255.26 240.7 249.06 238.06 247.1 241.56C244.9 245.46 250.98 254.22 253.62 257.86C253.24 257.86 236.5 257.52 232.28 257.34C226.334 257.11 220.38 257.183 214.44 257.56C210.35 257.65 206.283 258.207 202.32 259.22C200.82 259.96 198.88 263.82 198.06 265.44C196.44 268.62 189.06 288.58 187.02 294.34C185.82 297.66 181.76 308.66 184.48 310.6C184.38 312.74 184.72 315.6 186.6 316.6C188.48 317.6 214.32 318.32 216.3 318.36C219.8 318.46 255.18 318.92 277.76 317.92C300.34 316.92 310.2 314.76 309.62 314.82C310.194 314.652 310.709 314.327 311.109 313.88C311.507 313.435 311.775 312.888 311.88 312.3C312.189 310.822 312.092 309.288 311.6 307.86C314.12 302.96 295.06 262.28 289.78 259.42C289.469 259.245 289.118 259.148 288.76 259.14C287.7 259.14 263.98 258.14 254.76 257.84C252.76 255.02 246.26 244.4 248.76 242.14C252.56 238.82 284.3 255.46 282.6 222.34C281.72 207.36 274.82 198.58 260.82 203.66C259.6 201.02 249.36 179.14 246.62 173.32C257.235 173.955 267.883 173.722 278.46 172.62C278.612 174.487 279.149 176.302 280.037 177.95C280.925 179.599 282.145 181.047 283.62 182.2C291.62 188.2 323.46 187.3 329.24 179.96C330.86 177.745 331.98 175.205 332.522 172.515C333.063 169.825 333.015 167.05 332.38 164.38C332.912 164.041 333.325 163.545 333.56 162.96C333.88 162.34 333.56 161.56 332.18 161.28C330.4 161.013 328.6 160.906 326.8 160.96C326.8 159.32 326.9 156.26 326.8 152.78C326.98 152.66 328.28 151.1 328.42 150.92C330.014 149.057 331.274 146.933 332.14 144.64C332.8 142.78 333.06 140.64 331.32 139.6C328.64 138.14 326.76 140.82 325.86 143.82C325.02 139.2 323.08 132.42 318.44 133.1C310.56 134.3 316 153.4 318.56 160.96C316.312 160.643 314.029 160.643 311.78 160.96C314.28 154.68 315.56 146.56 309.14 145.34C308.167 145.125 307.152 145.2 306.22 145.555C305.29 145.911 304.483 146.531 303.9 147.34C303.772 146.887 303.53 146.475 303.198 146.141C302.869 145.807 302.457 145.562 302.005 145.431C301.554 145.299 301.075 145.283 300.617 145.387C300.158 145.489 299.732 145.708 299.38 146.02C296.44 148.14 298.12 153 301.54 154.6C301.36 156.656 301.36 158.724 301.54 160.78C299.412 160.523 297.257 160.57 295.14 160.92C295.022 156.037 294.487 151.172 293.54 146.38C294.755 145.515 295.778 144.407 296.542 143.127C297.307 141.846 297.797 140.42 297.98 138.94C298.26 136.28 297.32 134.06 295.1 133.48C292.32 132.76 290.68 134.7 290.2 137.48C287.74 134.08 282.92 132.86 280.58 136.76C273.08 128.96 269.46 133.32 271.36 136.76C272.78 139.4 276.48 140.88 279.36 141.7C279.36 146.18 281.36 149.96 283.84 153.82C285.5 156.42 287.36 158.92 288.8 160.76C285.689 160.66 282.574 160.861 279.5 161.36C277.62 161.86 277.32 163.22 279.06 164.2C278.51 166.544 278.309 168.957 278.46 171.36C267.717 170.788 256.945 171.042 246.24 172.12C245.56 170.66 243.54 166.4 243.3 165.9C243.06 165.4 244.98 159.6 247.68 105.68C260.08 104.64 315.84 105.88 320.96 103.9C321.254 103.795 321.514 103.613 321.715 103.374C321.915 103.135 322.049 102.847 322.1 102.54C323.8 96.96 324.96 49 322.1 44.54C321.4 43.44 318.9 43.1 317.52 42.9C299.7 40.3 225.34 41.42 221.52 43.44C217.7 45.46 219.32 65.18 220.04 69.1C181.42 67.86 92.2402 70.28 83.8402 73.42C81.8402 74.14 81.1002 76.88 80.7002 78.94C77.3802 96.08 86.7002 151.24 89.8202 168.28C89.6202 168.28 89.8202 168.28 87.3802 172.08C85.3151 171.927 83.2388 172.035 81.2002 172.4C76.6402 173.1 72.4402 179.4 70.1202 183.32C70.0202 183.52 64.1202 193.32 63.2402 194.92C58.2202 194.14 34.8804 194.44 31.9204 194.6C28.9604 194.76 25.9204 194.98 23.2404 195.18C22.7604 195.18 22.7204 196.1 23.2404 196.12C28.8404 196.46 30.9004 196.58 35.2404 196.64C45.8602 196.8 61.5202 197.24 62.0202 197.18C60.9802 199 45.5802 226.4 43.5202 230.28C34.5604 247.08 27.5204 262.46 27.1004 263.76C24.7756 264.817 22.5919 266.162 20.6004 267.76C19.958 269.522 19.574 271.368 19.4604 273.24C19.3604 276.46 20.5204 277.24 22.3004 279.04C17.5242 289.273 13.5977 299.883 10.5604 310.76C9.5689 315.16 9.52796 319.722 10.4404 324.14C11.257 328.557 12.7835 332.812 14.9604 336.74C15.9383 337.733 17.2056 338.392 18.5804 338.62C23.8404 340.1 40.1402 342 45.6002 342.62C45.1889 345.063 45.0748 347.548 45.2602 350.02C45.266 352.567 45.6362 355.099 46.3602 357.54C46.3671 357.6 46.3853 357.659 46.4144 357.712C46.4438 357.765 46.4831 357.812 46.5304 357.85C46.578 357.888 46.6322 357.917 46.6904 357.933C46.7489 357.952 46.81 357.957 46.8704 357.95C46.9308 357.943 46.9893 357.925 47.0428 357.895C47.0962 357.867 47.1431 357.827 47.1809 357.78C47.2191 357.732 47.2475 357.679 47.2646 357.62C47.2817 357.562 47.2871 357.5 47.2802 357.44C47.6002 354.947 47.6875 352.43 47.5402 349.92C47.5271 347.503 47.2522 345.097 46.7202 342.74C49.4802 342.98 52.1402 343.18 54.4602 343.26C54.0915 345.593 53.9908 347.963 54.1602 350.32C54.1671 352.867 54.5377 355.399 55.2602 357.84C55.2602 357.962 55.3089 358.079 55.3951 358.165C55.4813 358.252 55.5984 358.3 55.7202 358.3C55.8424 358.3 55.9595 358.252 56.0457 358.165C56.1322 358.079 56.1802 357.962 56.1802 357.84C56.5111 355.348 56.6049 352.83 56.4602 350.32C56.4468 347.985 56.1784 345.657 55.6602 343.38C60.1202 343.48 125.76 349.38 239.12 347.14C269.5 346.54 306.02 345.14 336.1 341.84C335.703 344.252 335.589 346.702 335.76 349.14C335.77 351.68 336.147 354.207 336.88 356.64C336.867 356.707 336.867 356.777 336.883 356.843C336.898 356.91 336.93 356.972 336.974 357.025C337.017 357.079 337.07 357.122 337.132 357.15C337.194 357.18 337.262 357.195 337.33 357.195C337.398 357.195 337.467 357.18 337.529 357.15C337.59 357.122 337.645 357.079 337.689 357.025C337.73 356.972 337.762 356.91 337.777 356.843C337.794 356.777 337.795 356.707 337.78 356.64C338.13 354.15 338.223 351.63 338.06 349.12C338.038 346.65 337.75 344.188 337.2 341.78C339.42 341.54 344.56 340.9 345 340.84C344.607 343.239 344.498 345.675 344.68 348.1C344.682 350.647 345.052 353.18 345.78 355.62C345.794 355.742 345.855 355.853 345.95 355.93C346.047 356.007 346.169 356.043 346.29 356.03C346.412 356.017 346.523 355.955 346.6 355.86C346.678 355.763 346.714 355.642 346.7 355.52C347.03 353.033 347.117 350.522 346.96 348.02C346.947 345.555 346.658 343.1 346.1 340.7C355.12 339.48 382.698 335.76 386.458 328.06C390.898 319.28 390.542 307.86 388.702 298.34ZM206.7 266.14C206.92 265.6 213.62 264.14 220.94 266.14C221.007 266.125 221.077 266.127 221.143 266.143C221.21 266.159 221.272 266.19 221.325 266.232C221.378 266.275 221.422 266.33 221.45 266.392C221.48 266.453 221.495 266.522 221.495 266.59C221.495 266.659 221.48 266.727 221.45 266.788C221.422 266.85 221.378 266.905 221.325 266.947C221.272 266.99 221.21 267.022 221.143 267.037C221.077 267.053 221.007 267.053 220.94 267.04C217.295 267.687 213.574 267.782 209.9 267.32C208.18 267.04 206 267.02 206.64 266.14H206.7ZM309.52 313.7C291.02 317.22 188.82 316.42 187.28 315.7C185.74 314.98 185.6 312.66 185.56 311.14C196.64 314.74 304.9 311.96 310.92 308.78C311.24 310.54 311.32 313.36 309.46 313.7H309.52ZM270.7 266.36C270.7 265.68 275.1 265.3 275.3 265.28C277.917 265.079 280.543 265.079 283.16 265.28C284.62 265.44 286.64 265.64 286.48 266.26C286.32 266.88 283.3 267.14 282.78 267.22C280.825 267.4 278.863 267.48 276.9 267.46C275.58 267.42 270.56 267.18 270.64 266.36H270.7ZM296.4 273.02C301.403 282.553 305.605 292.488 308.96 302.72C309.387 304.012 309.623 305.36 309.66 306.72C300.64 309.52 196.68 312.4 186.16 309.38C185.66 309.24 185.52 309.38 185.4 308.54C184.64 303.1 193.54 281.48 195.6 276.44C233.44 275.18 296 273.24 296.34 273.02H296.4ZM279.56 140.8C277.374 139.599 275.389 138.06 273.68 136.24C272.9 135.06 273.08 134.24 275.38 135.36C276.82 136.02 278.84 137.2 280.2 138.02C279.85 138.91 279.635 139.847 279.56 140.8ZM327.56 144.38C329.16 141.5 330.74 140.68 330.58 142.38C329.72 145.422 328.498 148.35 326.94 151.1C326.82 149.1 326.68 147.76 326.52 146.44C326.6 146.16 327 145.32 327.5 144.38H327.56ZM319.06 161.78C319.46 162.92 319.72 163.6 319.74 163.64C319.762 163.697 319.795 163.748 319.838 163.792C319.88 163.836 319.93 163.871 319.987 163.895C320.042 163.919 320.102 163.932 320.163 163.933C320.223 163.934 320.283 163.923 320.34 163.9C321.22 163.56 319.92 162.74 317.84 150.68C317.22 147.08 315.38 135.98 319.02 135.46C321.98 135.02 323.58 142.36 324.14 145.26C325.178 150.85 325.847 156.502 326.14 162.18C326.138 162.291 326.177 162.398 326.249 162.483C326.32 162.567 326.42 162.623 326.53 162.64C326.638 162.657 326.752 162.635 326.845 162.576C326.938 162.517 327.009 162.426 327.04 162.32C327.047 162.207 327.047 162.093 327.04 161.98C328.849 162.033 330.645 162.281 332.4 162.72C332.177 162.981 331.897 163.186 331.58 163.32C327.38 165.48 314.68 165.06 310.3 164.98C310.9 163.78 311.32 162.86 311.78 161.76C314.17 162.153 316.609 162.16 319 161.78H319.06ZM303.46 157.4C303.92 153.4 304.94 147.02 308.98 147.78C313.02 148.54 312 154.4 311.12 158.32C310.578 160.569 309.91 162.785 309.12 164.96H303.12C303.072 162.437 303.165 159.913 303.4 157.4H303.46ZM300.92 148C301.014 147.911 301.123 147.843 301.245 147.8C301.365 147.757 301.495 147.739 301.622 147.748C301.75 147.758 301.875 147.794 301.989 147.855C302.102 147.915 302.202 147.999 302.28 148.1C302.598 148.419 302.887 148.767 303.14 149.14C302.572 150.415 302.175 151.76 301.96 153.14C300.92 151.7 299.58 149.08 300.92 148ZM294.62 135.84C297.22 136.66 295.18 143.5 293.44 145.58C292.96 143.427 292.242 141.335 291.3 139.34C291.88 137.58 292.86 135.28 294.62 135.82V135.84ZM289.7 162C290.68 163.24 291.32 164 291.32 164C291.4 164.079 291.505 164.125 291.617 164.132C291.729 164.139 291.838 164.104 291.925 164.036C292.014 163.967 292.074 163.869 292.095 163.759C292.117 163.65 292.097 163.536 292.04 163.44C292.04 163.44 288.5 158.4 285.58 153.18C283.38 149.18 281.28 145.18 281.86 140.76C282.32 137.28 284.16 135.8 287.26 137.82C291.74 140.7 293.78 158.46 294.42 163.82C294.427 163.96 294.477 164.095 294.562 164.206C294.649 164.317 294.767 164.399 294.9 164.44C295.44 164.44 295.36 163.86 295.34 163.58C295.32 163.3 295.34 161.9 295.34 161.76C297.465 162.029 299.615 162.029 301.74 161.76C301.86 163.22 302 164.36 302.1 164.96C295 164.96 286.42 165.44 280.54 163.14C283.562 162.542 286.623 162.161 289.7 162ZM280.12 164.94C283.045 166.074 286.129 166.748 289.26 166.94C292.8 167.26 316.9 167.3 319.64 167.16C323.772 167.092 327.863 166.328 331.74 164.9C332.112 167.355 331.972 169.862 331.329 172.262C330.685 174.66 329.552 176.9 328 178.84C323.14 184.54 292.4 185.84 285.02 180.64C280.16 177.3 279.28 170.62 280.12 164.92V164.94ZM264 223.66C264.42 225 73.7202 225.06 73.5202 225.04C65.5202 225.04 67.5202 225.04 64.8402 224.38C64.1202 224.22 63.9802 224.22 63.8402 223.52C63.6708 222.422 63.6238 221.308 63.7002 220.2C63.7424 220.282 63.81 220.348 63.8933 220.388C63.9762 220.427 64.07 220.439 64.1602 220.42C64.1602 220.42 263.94 217.7 265.24 217.66C265.78 220 265.86 222.18 264 223.66ZM320.26 102.28C320.26 102.28 320.38 102.08 320.42 102.14C320.46 102.2 320.26 102.26 320.16 102.28H320.26ZM220.8 51.84C220.8 50.54 221.32 45.62 222.48 45.02C225.12 43.7 309.02 42.58 320.48 46.16C322.48 50.36 321.84 97.54 320.16 102.28C310.32 103.82 260.8 103.7 247.92 105.02C248.7 89.28 249.04 76.02 248.4 73.44C248.277 73.1036 248.077 72.8004 247.817 72.5538C247.557 72.3073 247.243 72.1247 246.9 72.02C242.52 70.12 226.04 69.58 221.24 69.42C220.617 63.5815 220.47 57.7022 220.8 51.84ZM82.5002 102.2C82.2002 98 80.7202 76.8 84.7202 75.32C86.7202 74.62 93.7602 73.92 103.98 73.32C123.56 72.1 154.42 71.12 182.5 70.92C188.74 70.92 241.46 70.46 246.62 74C248.14 80.92 243.28 157.8 242.2 165.22C194.94 166.76 138.94 169.08 91.2802 167.92C90.4802 163.34 84.3602 128 82.5002 102.2ZM90.6602 169.26C90.6642 169.213 90.6642 169.167 90.6602 169.12C124.36 170.16 229.82 166.7 242.66 166.62C244.08 169.92 264.02 214.16 264.86 216.62C264.64 216.62 64.0002 219.34 63.7402 219.54C66.2602 211.1 87.1002 175.42 90.6602 169.26ZM145.64 303.26C144.16 306.14 99.3202 326.18 90.1002 328.96C90.2791 328.039 90.3464 327.099 90.3002 326.16C103.92 321.44 133.48 308.98 146.74 300.16C146.488 301.237 146.119 302.283 145.64 303.28V303.26ZM147.02 298.84C143.02 301.2 139.2 302.84 90.2802 325.08C90.2824 324.175 90.1613 323.273 89.9202 322.4C96.3202 319.4 139.72 302.58 147.46 295.88C147.36 296.74 147.22 297.78 147.02 298.86V298.84ZM44.0002 257.8C44.962 258.933 45.5573 260.332 45.7075 261.81C45.8573 263.288 45.5551 264.777 44.8402 266.08C44.5202 266.58 45.2802 267.1 45.6002 266.58C46.8078 265.263 47.5217 263.57 47.6202 261.787C47.7184 260.003 47.1959 258.242 46.1402 256.8C55.8602 252.34 65.4202 248.14 68.0402 247C68.6959 248.332 69.0468 249.792 69.0675 251.277C69.0882 252.76 68.7784 254.23 68.1602 255.58C67.9202 256.22 68.6402 256.46 68.9802 256.04C70.0802 254.642 70.7649 252.963 70.9562 251.195C71.1471 249.427 70.8366 247.64 70.0602 246.04C72.2202 244.82 77.2602 242.04 79.7202 242.04C82.8002 242.04 145.3 292.88 146.46 294.04C141.24 299.42 92.7802 318.6 88.7002 320.56C80.1002 318.56 27.6204 273.42 22.7004 268.78C25.7604 266.24 40.5602 259.4 44.0002 257.8ZM21.1804 269.7C27.4204 275.8 79.4802 321.24 88.2002 322.68C88.0257 323.433 87.9449 324.207 87.9602 324.98C73.9602 318.14 33.9604 283.5 20.7204 272.36C20.7804 272.36 21.0804 270.4 21.2404 269.7H21.1804ZM21.4804 276.56C20.9162 275.702 20.6364 274.687 20.6804 273.66C33.7604 286.86 70.6802 319.32 87.9402 326.08C87.9049 327.15 88.0126 328.219 88.2602 329.26C78.0002 326.96 22.8404 278.2 21.5404 276.56H21.4804ZM385.48 327.4C372.56 353.04 21.9604 346.34 16.2804 336.34C13.8728 332.155 12.2464 327.567 11.4804 322.8C12.252 324.49 13.5407 325.89 15.1604 326.8C44.6002 343.94 337.5 339.46 375.738 325.72C383.84 322.8 387.92 316.5 388.84 307.72C389.382 314.462 388.215 321.232 385.44 327.4H385.48Z" fill="#D4D4D4"/>
<path d="M85.9997 191.38C227.42 193.38 240.92 192.16 244.88 191.54C245.82 191.4 246.42 191.08 246.38 189.98C246.38 187.08 239.58 173.78 237.78 172.86C236.98 172.44 93.7797 174.46 93.2797 174.62C93.1866 174.642 93.0994 174.685 93.0234 174.743C92.9477 174.802 92.8848 174.875 92.8397 174.96C91.4797 177.18 84.8397 188.14 85.1397 190.62C85.1721 190.827 85.2761 191.017 85.4328 191.155C85.5899 191.293 85.7903 191.373 85.9997 191.38ZM93.8597 176C95.2997 175.82 236.18 174.42 237.04 174.5C238.534 176.648 239.87 178.9 241.04 181.24C237.76 181.24 91.1597 182.02 90.3997 182.04C91.2797 180.28 92.4397 178.28 93.8597 176ZM89.8597 183C90.6397 183 238.98 182.24 241.52 182.18C242.837 184.63 243.877 187.22 244.62 189.9C237.5 191.04 172.62 190.48 86.7197 189.9C87.5223 187.477 88.5605 185.14 89.8197 182.92L89.8597 183ZM196.38 198.18C195.982 197.297 195.33 196.552 194.507 196.04C193.685 195.527 192.728 195.27 191.76 195.3C186.68 195.3 144.02 194.12 140.18 195.68C137.728 198.65 135.831 202.039 134.58 205.68C134.46 206.56 134.9 206.96 135.44 207.02C147.44 208.32 187.22 209.56 197.54 207.66C198.82 207.42 198.98 206.06 198.72 204.76C198.102 202.513 197.318 200.313 196.38 198.18ZM136 205.68C137.148 202.435 138.708 199.35 140.64 196.5C143.68 195.5 183.22 197.58 191.82 197.56C192.332 197.542 192.838 197.672 193.278 197.933C193.718 198.197 194.074 198.58 194.3 199.04C195.272 201.117 196.03 203.288 196.56 205.52C186.42 207.1 143.36 206.2 136 205.68ZM335.28 200.74C332.46 196.86 318.32 197.04 313.58 197.18C309.58 197.18 295.04 197.84 295.04 201.76C295.057 202.077 295.148 202.387 295.308 202.662C295.468 202.937 295.692 203.168 295.96 203.34C296.34 203.64 293.72 230 297.32 244.14C298.5 248.82 300.02 251.14 304.48 253.08C313.04 256.8 327.24 255.98 332.94 248.04C334.08 245.72 333.84 238.96 333.94 236.9C342.8 238.66 350.06 235.06 351.94 225.52C353.12 219.38 351.6 215.36 348.98 212.92C347.23 211.495 345.16 210.513 342.95 210.062C340.738 209.608 338.45 209.697 336.28 210.32C336.205 210.345 336.123 210.353 336.045 210.34C335.965 210.328 335.89 210.299 335.827 210.25C335.762 210.203 335.708 210.142 335.674 210.07C335.637 209.999 335.618 209.92 335.62 209.84C335.62 208.78 336 201.6 335.28 200.74ZM297.28 201.16C302.68 198 324.68 197.76 331.78 200.98C332.02 201.1 332.92 201.56 332.92 201.76C332.92 201.96 332 202.44 331.78 202.54C326.42 204.96 307.28 206.06 297.22 202.38C296.52 202 297.22 201.24 297.22 201.16H297.28ZM336.84 212.36C338.658 211.837 340.575 211.762 342.428 212.14C344.282 212.52 346.015 213.343 347.48 214.54C349.64 216.54 350.72 219.98 349.72 225.08C349.522 226.853 348.907 228.553 347.927 230.045C346.947 231.535 345.628 232.775 344.08 233.66C340.8 235.137 337.107 235.419 333.64 234.46C333.47 234.399 333.288 234.372 333.108 234.383C332.927 234.395 332.75 234.443 332.588 234.525C332.427 234.608 332.285 234.723 332.17 234.863C332.055 235.003 331.97 235.165 331.92 235.34C331.38 236.86 332.14 243 331.04 246.88C325.98 253.74 313.04 254.36 305.38 251.14C301.5 249.48 300.42 247.76 299.38 243.62C296.7 233.8 296.54 213.8 297.14 203.96C303.44 206.94 325.26 207.8 333.84 203.4C333.84 209.6 333.08 210.64 334.64 211.9C334.942 212.128 335.29 212.287 335.66 212.367C336.028 212.445 336.412 212.443 336.78 212.36H336.84ZM142.56 254.74C137.307 250.285 131.657 246.322 125.68 242.9C123.377 241.542 120.928 240.448 118.38 239.64C116.24 239.08 115.34 240.18 115.78 241.64C116.681 243.737 117.873 245.695 119.32 247.46C123.922 253.285 129.214 258.53 135.08 263.08C144 270.54 155.56 279.58 164 286C164.43 286.315 164.918 286.54 165.436 286.662C165.955 286.785 166.492 286.803 167.018 286.717C167.543 286.628 168.045 286.437 168.497 286.152C168.947 285.868 169.335 285.497 169.64 285.06C171.12 283.44 172.04 280.6 170.38 279.06C168.46 277.34 156.72 266.28 142.56 254.74ZM123.4 250.3L120.66 245.88C121.635 245.475 122.46 244.775 123.02 243.88L127.36 245.64C126.271 245.857 125.287 246.433 124.568 247.28C123.849 248.127 123.437 249.19 123.4 250.3ZM129.54 255.4C128.094 254.183 126.756 252.845 125.54 251.4C125.68 248.98 126.44 247.9 128.86 247.82C130.472 248.59 131.995 249.537 133.4 250.64C132.324 250.902 131.364 251.51 130.667 252.368C129.97 253.228 129.574 254.293 129.54 255.4ZM163.74 284.5C161.52 282.64 132 257.6 130.18 256C130.332 254.88 130.822 253.833 131.582 252.999C132.343 252.162 133.339 251.577 134.44 251.32C141.34 256.44 151.26 264.92 168.56 279.32C167.887 279.285 167.214 279.4 166.589 279.653C165.964 279.907 165.402 280.293 164.943 280.787C164.483 281.28 164.138 281.868 163.93 282.51C163.722 283.152 163.657 283.83 163.74 284.5ZM322.22 306.66C324.72 308.36 326.46 307.58 328.08 305.22C332.08 299.54 346.08 274.4 346.08 274.2C346.08 274 346.24 274.38 345.58 266.3C345.552 265.997 345.442 265.705 345.262 265.459C345.083 265.212 344.84 265.019 344.56 264.899C344.28 264.777 343.972 264.733 343.67 264.773C343.367 264.812 343.08 264.932 342.84 265.12L336 270.1C336 270.1 320.82 301.48 320.66 301.76C320.385 302.639 320.388 303.58 320.667 304.457C320.947 305.333 321.488 306.102 322.22 306.66ZM343.4 267.56C343.52 269.02 343.68 270.96 343.8 272.3C342.315 271.588 340.76 271.033 339.16 270.64L343.4 267.56ZM337.68 272C339.414 273.228 341.417 274.025 343.52 274.32C343.22 274.84 327.94 302.72 327.78 303C327.315 302.055 326.552 301.29 325.608 300.823C324.665 300.357 323.594 300.215 322.56 300.42C324.12 297.52 337.12 273 337.68 272Z" fill="#D4D4D4"/>
<path d="M328.481 232.34C328.266 232.037 327.992 231.78 327.676 231.585C327.359 231.39 327.007 231.258 326.641 231.2C325.457 230.883 324.256 230.643 323.041 230.48C323.721 235.24 324.121 240.48 324.101 240.94C324.07 241.245 323.921 241.525 323.686 241.72C323.449 241.913 323.146 242.008 322.841 241.98C322.536 241.945 322.254 241.792 322.061 241.552C321.866 241.313 321.772 241.007 321.801 240.7C321.801 240.36 321.681 238.98 321.581 230.28C317.581 229.78 298.321 228.28 299.081 232.12C299.081 232.32 297.501 242.12 303.621 246.82C309.741 251.52 321.981 250.6 326.261 245.82C327.476 244.365 328.277 242.61 328.581 240.74C329.054 237.957 329.019 235.112 328.481 232.34ZM333.281 214.24C333.281 215.14 332.081 222.02 331.281 231.26L332.241 231.46C335.761 232.207 339.426 231.807 342.701 230.32C343.844 229.685 344.789 228.75 345.434 227.613C346.081 226.477 346.401 225.187 346.361 223.88C346.497 222.257 346.214 220.625 345.541 219.142C344.867 217.658 343.826 216.372 342.514 215.407C341.202 214.44 339.666 213.825 338.049 213.62C336.432 213.417 334.792 213.63 333.281 214.24ZM334.181 214.92C335.457 214.718 336.762 214.792 338.007 215.137C339.254 215.482 340.41 216.09 341.401 216.92C342.352 217.792 343.089 218.872 343.554 220.077C344.019 221.28 344.199 222.575 344.081 223.86C343.901 229 338.621 229.98 333.561 229.46C333.801 225.82 334.001 221.64 334.181 214.92ZM140.601 196.5C140.601 196.5 140.621 196.52 140.601 196.5V196.5ZM312.761 97.5196C312.756 97.876 312.821 98.2298 312.952 98.5607C313.086 98.8916 313.281 99.1931 313.531 99.448C313.779 99.7025 314.077 99.9054 314.404 100.045C314.732 100.184 315.084 100.257 315.441 100.26C315.986 100.272 316.521 100.121 316.979 99.8276C317.437 99.5338 317.799 99.1102 318.014 98.6105C318.23 98.1113 318.294 97.5585 318.196 97.0233C318.097 96.4876 317.841 95.9938 317.459 95.6047C317.079 95.2156 316.591 94.9483 316.057 94.8378C315.526 94.7273 314.971 94.7778 314.467 94.9833C313.962 95.1887 313.531 95.5396 313.227 95.9916C312.924 96.4433 312.761 96.9756 312.761 97.5196ZM93.861 163.5C94.321 164.4 94.921 164.5 95.301 164.22C95.681 163.94 222.341 162.84 231.761 162.34C233.787 162.371 235.807 162.115 237.761 161.58C242.261 157.58 244.021 82.7996 242.261 79.3396C237.761 70.3596 96.921 76.14 88.261 78.76C81.361 80.84 90.681 157.12 93.861 163.5ZM87.881 81.9996C87.881 81.6396 88.321 80.2396 88.661 80.1396C98.241 77.2596 237.341 72.52 241.121 80.04C241.444 81.5443 241.59 83.0814 241.561 84.62C241.901 93.34 241.561 112.02 240.661 128.76C240.481 131.96 239.061 158.18 236.981 160.56C228.681 162.32 100.781 162.72 95.101 162.94C91.861 155.42 84.861 95.1996 87.881 81.9996ZM315.701 53.4196C316.244 53.4316 316.779 53.2818 317.237 52.9887C317.696 52.696 318.056 52.2734 318.272 51.7753C318.491 51.2767 318.554 50.7254 318.457 50.1905C318.359 49.6556 318.106 49.1618 317.727 48.7716C317.347 48.3818 316.862 48.1134 316.33 48.0003C315.799 47.8876 315.246 47.9353 314.741 48.1378C314.236 48.34 313.804 48.688 313.497 49.1371C313.19 49.5862 313.026 50.1163 313.021 50.6596C313.012 51.0178 313.076 51.3738 313.207 51.7069C313.337 52.04 313.534 52.344 313.784 52.6007C314.032 52.8578 314.331 53.0622 314.661 53.2029C314.989 53.3436 315.342 53.4174 315.701 53.4196Z" fill="#D4D4D4"/>
<path d="M127.021 132.4H150.781C153.53 132.389 156.163 131.288 158.102 129.338C160.04 127.389 161.126 124.749 161.121 122V102.72C161.121 99.9644 160.036 97.3196 158.101 95.3582C156.166 93.3971 153.536 92.2767 150.781 92.2397H127.021C125.643 92.2346 124.278 92.5018 123.004 93.0269C121.73 93.5516 120.573 94.3233 119.599 95.2975C118.624 96.2717 117.853 97.4291 117.328 98.7029C116.803 99.9771 116.536 101.342 116.541 102.72V122C116.546 123.371 116.821 124.727 117.351 125.992C117.88 127.257 118.654 128.405 119.627 129.37C120.6 130.336 121.754 131.101 123.023 131.62C124.291 132.14 125.65 132.405 127.021 132.4ZM118.241 102.72C118.277 100.408 119.216 98.2022 120.856 96.5731C122.497 94.9437 124.709 94.0204 127.021 93.9996H150.781C151.948 93.9866 153.107 94.2047 154.19 94.6418C155.273 95.0789 156.258 95.7262 157.089 96.5462C157.921 97.3666 158.581 98.3429 159.033 99.4197C159.484 100.496 159.718 101.652 159.721 102.82V122C159.716 123.169 159.48 124.325 159.028 125.403C158.576 126.48 157.916 127.459 157.086 128.281C156.256 129.104 155.272 129.755 154.19 130.197C153.108 130.64 151.95 130.865 150.781 130.86H127.021C125.863 130.855 124.717 130.621 123.649 130.173C122.581 129.725 121.611 129.071 120.796 128.248C119.981 127.425 119.335 126.45 118.897 125.378C118.459 124.306 118.236 123.158 118.241 122V102.72ZM191.26 146.68C191.66 147.86 192.66 147.6 192.94 146.86C193.32 145.8 195.54 138.18 195.82 136.86C197.36 136.38 193.02 137.88 206.44 133C206.58 132.946 206.699 132.851 206.784 132.728C206.869 132.605 206.914 132.459 206.914 132.31C206.914 132.16 206.869 132.015 206.784 131.892C206.699 131.768 206.58 131.674 206.44 131.62L185.88 123.4C185.754 123.34 185.614 123.315 185.475 123.325C185.335 123.337 185.202 123.384 185.087 123.463C184.972 123.541 184.879 123.649 184.819 123.775C184.757 123.901 184.73 124.04 184.74 124.18C184.74 124.18 190.16 143.5 191.26 146.68ZM186.8 125.54L204.12 132.36C201.8 133.22 197.88 134.7 196 135.46C195.16 135.78 194.82 135.92 194.62 136.18C194.42 136.44 195.12 134.88 192.18 143.94L186.8 125.54ZM234 66.8997C234.024 67.0197 234.089 67.1276 234.184 67.2044C234.279 67.2815 234.399 67.3222 234.52 67.3196C234.94 67.3196 247.88 68.5597 250.52 67.8597C252.22 67.3997 252.52 64.3997 252.68 62.6397C252.88 59.9797 252.68 53.4597 251.56 51.2397C250.04 48.2397 238.82 49.2397 235.56 49.8197C234.695 49.9415 233.869 50.256 233.14 50.7397C232.717 51.2317 232.47 51.8513 232.44 52.4997C232.42 57.3429 232.944 62.1731 234 66.8997ZM234.58 52.2797C237.74 51.2997 246.74 50.9197 249.6 52.2797C250.58 54.8797 251.1 63.8197 249.92 65.8997C248.06 66.3797 236.7 66.3796 234.8 66.3996C234.74 64.8396 233.82 56.4197 234.58 52.2797ZM260.84 66.8197C260.867 66.9378 260.934 67.0437 261.027 67.12C261.122 67.196 261.239 67.2382 261.36 67.2397C261.78 67.2397 274.72 68.4797 277.36 67.7797C279.06 67.3197 279.36 64.3196 279.54 62.5596C279.72 59.8996 279.54 53.3797 278.4 51.1597C276.88 48.1397 265.66 49.1597 262.4 49.7397C261.537 49.8698 260.712 50.1837 259.98 50.6597C259.565 51.1571 259.32 51.7735 259.28 52.4197C259.262 57.2629 259.785 62.0931 260.84 66.8197ZM261.42 52.1997C264.58 51.1997 273.58 50.8397 276.44 52.1997C277.42 54.7997 277.94 63.7397 276.76 65.7997C274.9 66.2997 263.54 66.2997 261.64 66.3197C261.58 64.7597 260.66 56.3397 261.42 52.1997ZM288.92 67.6996C288.944 67.8196 289.009 67.9277 289.104 68.0044C289.199 68.0815 289.319 68.1222 289.44 68.1197C289.86 68.1197 302.8 69.3596 305.44 68.6596C307.14 68.1996 307.44 65.1997 307.6 63.4397C307.8 60.7797 307.6 54.2597 306.48 52.0397C304.96 49.0397 293.74 50.0397 290.48 50.6197C289.617 50.7466 288.79 51.0607 288.06 51.5397C287.637 52.0317 287.39 52.6513 287.36 53.2997C287.34 58.1429 287.864 62.9731 288.92 67.6996ZM289.5 53.0797C292.66 52.0997 301.66 51.7197 304.52 53.0797C305.5 55.6797 306.02 64.6197 304.84 66.6997C302.98 67.1797 291.62 67.1797 289.72 67.1997C289.66 65.6397 288.74 57.2197 289.5 53.0797ZM261.02 97.5797C261.16 97.9797 261.48 98.0196 261.54 97.9996C261.98 97.9996 274.9 99.2397 277.54 98.5397C279.24 98.0797 279.54 95.0797 279.72 93.3197C279.9 90.6597 279.72 84.1396 278.6 81.9396C277.06 78.9196 265.84 79.9396 262.6 80.4996C261.729 80.6236 260.897 80.9378 260.16 81.4197C259.742 81.9222 259.495 82.5466 259.46 83.1997C259.442 88.0364 259.965 92.8597 261.02 97.5797ZM261.62 82.9597C264.78 81.9797 273.76 81.5997 276.62 82.9597C277.6 85.5597 278.12 94.4997 276.94 96.5797C275.08 97.0597 263.74 97.0596 261.84 97.0796C261.76 95.5196 260.84 87.0997 261.62 82.9597ZM307.78 81.1196C310.98 76.3996 313.78 72.1396 313.88 71.9396C313.98 71.7396 312.52 69.9397 311.66 71.2197C305.54 80.6397 306.38 79.7396 305.94 79.5796C302.42 78.2996 291.06 78.7396 289.28 80.3996C288.08 81.5196 288.54 85.5796 288.68 87.3196C287.4 86.5996 286.42 86.0797 286.06 85.9397C285.14 85.5797 285.2 86.4797 285.7 86.7996L288.82 88.7997C289.074 91.428 289.48 94.0393 290.04 96.6197C290.06 96.7415 290.124 96.852 290.22 96.9295C290.315 97.0069 290.437 97.0462 290.56 97.0396C290.98 97.0396 303.92 98.2797 306.56 97.5797C310 96.6197 308.94 83.9996 307.78 81.1196ZM290.62 81.9396C295.325 80.8695 300.2 80.7807 304.94 81.6797L298 92.6197C297.3 92.2197 293.56 90.0197 290.44 88.2597C290.309 86.172 290.369 84.0767 290.62 81.9997V81.9396ZM305.96 95.5396C304.08 96.0396 292.74 96.0397 290.84 96.0597C290.84 95.2597 290.54 92.6397 290.4 89.7397L298 94.4597C298.192 94.4807 298.387 94.4469 298.56 94.3618C298.734 94.2771 298.879 94.1444 298.98 93.9797C299.62 93.1597 302.84 88.4796 306.12 83.6596C306.74 87.2596 306.94 93.8196 306 95.5396H305.96ZM226.44 52.7597C226.984 52.7677 227.515 52.6142 227.972 52.3189C228.427 52.0237 228.784 51.5997 228.999 51.1011C229.212 50.6022 229.274 50.0513 229.174 49.5175C229.074 48.984 228.819 48.492 228.439 48.104C228.059 47.716 227.574 47.4495 227.042 47.3382C226.511 47.2269 225.959 47.276 225.455 47.4793C224.952 47.6822 224.52 48.0302 224.215 48.4789C223.91 48.9277 223.744 49.4571 223.74 49.9997C223.74 50.7215 224.022 51.4146 224.527 51.9306C225.032 52.4466 225.719 52.744 226.44 52.7597Z" fill="#D4D4D4"/>
</svg>
